<?xml version="1.0" encoding="UTF-8" standalone="no"?>
<!-- Created with Inkscape (http://www.inkscape.org/) -->

<svg
   width="135.29765mm"
   height="135.29707mm"
   viewBox="0 0 135.29765 135.29707"
   version="1.1"
   id="svg5"
   xml:space="preserve"
   xmlns:inkscape="http://www.inkscape.org/namespaces/inkscape"
   xmlns:sodipodi="http://sodipodi.sourceforge.net/DTD/sodipodi-0.dtd"
   xmlns="http://www.w3.org/2000/svg"
   xmlns:svg="http://www.w3.org/2000/svg"><sodipodi:namedview
     id="namedview7"
     pagecolor="#505050"
     bordercolor="#eeeeee"
     borderopacity="1"
     inkscape:showpageshadow="0"
     inkscape:pageopacity="0"
     inkscape:pagecheckerboard="0"
     inkscape:deskcolor="#505050"
     inkscape:document-units="mm"
     showgrid="false" /><defs
     id="defs2" /><g
     inkscape:label="Layer 1"
     inkscape:groupmode="layer"
     id="layer1"
     transform="translate(-46.067365,-88.354078)"><path
       style="fill:#ffffff;stroke-width:0.264583"
       d="m 59.957983,223.478 c -5.97141,-1.03933 -10.97228,-5.37212 -13.18175,-11.42073 l -0.70887,-1.94062 v -42.59791 c 0,-40.65625 0.0222,-42.67028 0.48819,-44.18542 1.82988,-5.95035 6.22304,-10.29636 12.07951,-11.94985 1.61203,-0.45513 3.2538,-0.48556 26.20067,-0.48556 h 24.480877 l 1.31364,0.67595 c 3.33044,1.71371 4.00398,6.17977 1.33404,8.84566 -1.79174,1.78903 -0.771,1.72318 -26.711647,1.72318 -25.65746,0 -24.48884,-0.0685 -26.17879,1.53539 -1.92806,1.82993 -1.77464,-2.14043 -1.69801,43.94446 l 0.0686,41.25796 0.79375,1.12693 c 0.43656,0.6198 1.31849,1.40395 1.95984,1.74255 l 1.16609,0.61562 h 40.979337 c 45.73614,0 41.83475,0.15744 43.65621,-1.76171 1.60393,-1.68994 1.53539,-0.52132 1.53539,-26.17878 0,-25.94065 -0.0659,-24.91991 1.72318,-26.71165 2.66589,-2.66994 7.13195,-1.9964 8.84567,1.33405 l 0.67594,1.31363 v 24.48088 c 0,27.334 0.0911,25.89408 -1.87616,29.64697 -2.13467,4.07218 -5.32493,6.80274 -9.79457,8.38322 l -2.0876,0.73818 -41.93646,0.0374 c -23.065047,0.0206 -42.472237,-0.0558 -43.127077,-0.16982 z m 35.40813,-48.34247 c -0.78068,-0.48432 -1.27688,-1.37088 -1.27688,-2.28143 0,-0.83891 3.908659,-20.27529 4.240619,-21.08709 0.15079,-0.36876 10.390718,-10.7865 22.755388,-23.15053 l 22.48122,-22.48005 9.98743,9.98744 9.98744,9.98743 -22.48005,22.48122 c -12.36403,12.36467 -22.78177,22.6046 -23.15053,22.75539 -0.87873,0.35933 -20.293688,4.24272 -21.165687,4.23358 -0.3693,-0.004 -0.98983,-0.20455 -1.37895,-0.44596 z m 64.076087,-65.03048 -9.91834,-9.92098 4.23112,-4.248658 c 4.62867,-4.647848 6.51354,-6.070057 9.12592,-6.885859 12.44658,-3.886861 23.00657,9.279835 16.50465,20.578787 -0.63168,1.09773 -9.46425,10.39769 -9.87512,10.39769 -0.0824,0 -4.61314,-4.46444 -10.06823,-9.92098 z"
       id="path179" /></g></svg>
